<?xml version="1.0" standalone="no"?>
<svg viewBox="0 0 200 200" xmlns="http://www.w3.org/2000/svg">
  <path fill="#FF0066" d="M25.3,-50.8C27.3,-42.8,19.6,-24.8,29.6,-14.7C39.6,-4.6,67.2,-2.3,79.5,7.1C91.9,16.6,88.9,33.1,75,36.4C61.1,39.6,36.2,29.5,21.8,32.9C7.5,36.4,3.7,53.3,-4.3,60.8C-12.4,68.3,-24.8,66.4,-25.6,55.2C-26.5,43.9,-15.7,23.4,-22.3,12.7C-28.9,1.9,-52.9,1,-65.5,-7.3C-78.1,-15.5,-79.3,-31,-68.6,-34.7C-58,-38.4,-35.4,-30.2,-21.9,-31.7C-8.5,-33.2,-4.3,-44.2,3.7,-50.7C11.7,-57.1,23.4,-58.9,25.3,-50.8Z" transform="translate(100 100)" />
</svg>
